<svg width="58" height="65" viewBox="0 0 58 65" fill="none" xmlns="http://www.w3.org/2000/svg">
<path d="M11.5341 1.27344C14.4091 4.24844 16.6841 8.69844 16.6841 12.9734V14.4484H16.5341L8.38413 1.12344H2.43413V1.24844L4.13413 3.89844V17.9984H9.93413V17.8484C6.85913 14.8234 4.70913 11.1484 4.70913 6.37344V4.72344H4.83413L13.0091 18.0484H17.2341V1.12344H11.5341V1.27344Z" fill="#0D0D11"/>
<path d="M27.3798 18.3734C28.4548 18.3734 35.1298 16.8734 35.1298 9.54844C35.1298 4.67344 31.7798 0.773438 27.3298 0.773438C26.2298 0.773438 19.5548 2.27344 19.5548 9.59844C19.5548 14.4734 22.8548 18.3734 27.3798 18.3734ZM30.3048 16.8984C28.6548 17.3984 26.3548 14.6984 24.5798 10.0234C22.8048 5.34844 23.0548 2.67344 24.3548 2.24844C25.9048 1.79844 27.9798 4.02344 29.7298 8.39844C31.6798 13.2484 31.6548 16.4484 30.3048 16.8984Z" fill="#0D0D11"/>
<path d="M49.0802 1.27344C51.4302 2.79844 52.7552 7.07344 51.9552 10.2484L51.4802 11.9234H51.3552L49.2052 6.14844L50.2552 4.84844V4.69844H43.9052V4.84844C44.8302 6.07344 45.5802 8.14844 44.7302 10.7984L44.4052 11.9484H44.2802L41.2552 2.57344L42.5302 1.27344V1.12344H35.7302V1.27344L41.7052 18.3984H41.9552L45.9052 9.67344H46.0302L49.5302 18.3984H49.7802L55.6802 1.27344V1.12344H49.0802V1.27344Z" fill="#0D0D11"/>
<path d="M25.2017 24.7984C24.9517 25.5234 25.3017 26.0984 26.0267 26.0984C26.7517 26.0984 27.5517 25.5234 27.8267 24.7984C28.1017 24.0734 27.7017 23.4734 26.9767 23.4734C26.2517 23.4734 25.4517 24.0734 25.2017 24.7984ZM21.1517 30.6484L20.0767 32.4484H20.2267L21.2017 30.9234C23.0267 28.0734 25.1767 27.2984 23.5017 31.4234L21.1267 37.9484C19.9767 41.3484 23.3017 42.8734 25.5267 38.7734L26.6017 36.9734H26.4517L25.4767 38.4984C23.6517 41.3484 21.4767 42.1234 23.1517 37.9984L25.5267 31.4734C26.6767 28.0734 23.3767 26.5484 21.1517 30.6484Z" fill="#0D0D11"/>
<path d="M35.1255 38.4484C31.8755 44.7484 28.1255 35.6234 26.3755 40.3734C29.0505 41.3484 31.8005 41.8484 34.4005 40.0734C34.9505 39.6984 36.2505 38.4984 36.6755 37.0484C37.8755 32.9984 28.5255 34.9984 29.6005 30.6984C31.4005 25.4234 36.5505 32.6734 37.9255 28.5734C33.8755 27.1234 28.9505 28.2984 27.9005 32.0984C26.6505 36.4734 36.5505 34.3984 35.1255 38.4484Z" fill="#0D0D11"/>
<path d="M14.0216 47.2734C16.3716 48.7984 17.6966 53.0734 16.8966 56.2484L16.4216 57.9234H16.2966L14.1466 52.1484L15.1966 50.8484V50.6984H8.84663V50.8484C9.77163 52.0734 10.5216 54.1484 9.67163 56.7984L9.34663 57.9484H9.22163L6.19663 48.5734L7.47163 47.2734V47.1234H0.671631V47.2734L6.64663 64.3984H6.89663L10.8466 55.6734H10.9716L14.4716 64.3984H14.7216L20.6216 47.2734V47.1234H14.0216V47.2734Z" fill="#0D0D11"/>
<path d="M28.9423 64.3734C30.0173 64.3734 36.6923 62.8734 36.6923 55.5484C36.6923 50.6734 33.3423 46.7734 28.8923 46.7734C27.7923 46.7734 21.1173 48.2734 21.1173 55.5984C21.1173 60.4734 24.4173 64.3734 28.9423 64.3734ZM31.8673 62.8984C30.2173 63.3984 27.9173 60.6984 26.1423 56.0234C24.3673 51.3484 24.6173 48.6734 25.9173 48.2484C27.4673 47.7984 29.5423 50.0234 31.2923 54.3984C33.2423 59.2484 33.2173 62.4484 31.8673 62.8984Z" fill="#0D0D11"/>
<path d="M50.6427 47.2734C52.9927 48.7984 54.3177 53.0734 53.5177 56.2484L53.0427 57.9234H52.9177L50.7677 52.1484L51.8177 50.8484V50.6984H45.4677V50.8484C46.3927 52.0734 47.1427 54.1484 46.2927 56.7984L45.9677 57.9484H45.8427L42.8177 48.5734L44.0927 47.2734V47.1234H37.2927V47.2734L43.2677 64.3984H43.5177L47.4677 55.6734H47.5927L51.0927 64.3984H51.3427L57.2427 47.2734V47.1234H50.6427V47.2734Z" fill="#0D0D11"/>
</svg>
