<svg width="156" height="162" viewBox="0 0 156 162" fill="none" xmlns="http://www.w3.org/2000/svg">
<path d="M126.722 123.472C124.82 125.806 124.096 128.639 126.537 130.632C131.149 134.391 137.374 124.907 141.078 127.81C143.441 129.676 140.486 134.504 136.567 135.693C134.942 136.201 133.398 136.1 131.535 134.808L131.459 134.898L136.075 137.923C136.075 137.923 138.423 135.934 140.379 133.462C143.556 129.466 141.865 126.874 140.878 126.074C136.591 122.588 129.883 131.512 126.591 128.741C125.746 128.029 124.806 126.224 126.92 123.638C129.154 120.908 131.949 120.033 136.63 123.235L136.72 123.127L131.415 119.645C129.86 120.58 128.578 121.192 126.722 123.472Z" fill="#0D0D11"/>
<path d="M116.99 138.419L117.057 138.426C116.034 134.581 118.899 129.619 121.37 132.671L126.369 138.882L123.513 141.222L123.468 143.022L127.233 139.937L129.037 142.138L129.024 136.707L127.842 137.675L123.146 131.945C120.031 128.144 115.648 133.256 116.99 138.419Z" fill="#0D0D11"/>
<path d="M117.67 144.03L115.241 146.837C112.806 149.486 110.755 150.343 109.437 147.793C109.027 146.998 112.714 143.797 112.714 143.797C117.942 139.348 114.669 134.946 110.793 137.071C107.433 138.913 108.175 145.347 108.167 145.431L107.258 143.676L106.941 143.099C105.965 141.515 104.493 140.74 102.432 141.87C103.306 141.605 104.508 142.233 105.595 144.213L105.753 144.501C106.43 145.686 106.945 146.772 107.353 147.514C108.993 150.504 114.702 150.057 117.122 147.04L117.67 144.03ZM113.424 138.982C116.135 140.795 112.674 143.577 112.36 143.884C109.244 146.611 109.278 147.504 109.244 147.442L108.846 146.668C107.471 144.016 109.634 136.473 113.424 138.982Z" fill="#0D0D11"/>
<path d="M96.8983 154.171L96.4444 155.954C96.9209 155.822 97.2933 155.676 97.2933 155.676C99.9963 154.79 100.946 151.806 100.705 150.845L101.806 154.198L103.638 153.598L102.728 150.826L100.357 143.533C100.203 143.064 100.242 142.804 100.281 142.321L97.1757 143.338C97.6292 143.362 98.239 143.336 98.5032 144.141L100.551 150.376C100.719 151.039 100.689 152.756 97.3824 153.988C97.3824 153.988 97.159 154.061 96.8983 154.171Z" fill="#0D0D11"/>
<path d="M80.8626 150.624L80.9154 150.664C82.0675 146.857 87.1128 144.148 87.609 148.046L88.5935 155.96L84.9352 156.444L83.9505 157.951L88.774 157.312L89.1503 160.134L91.9956 155.51L90.481 155.71L89.5012 148.365C88.8511 143.491 82.4355 145.527 80.8626 150.624Z" fill="#0D0D11"/>
<path d="M67.4464 145.832L61.4387 144.374C59.2686 143.847 56.0788 144.139 55.3333 147.226C54.6762 149.947 57.2625 151.954 59.3184 152.453L57.5595 152.026C54.864 151.372 52.4042 152.446 51.8852 154.595C51.228 157.316 53.4544 159.212 57.1778 160.116L64.9444 162L63.7244 161.244L67.4464 145.832ZM63.2773 153.583L61.5212 160.855L58.6658 160.162C54.3485 159.114 53.6361 157.659 54.2546 155.097C54.7626 152.994 56.4929 151.937 58.4345 152.408L63.2773 153.583ZM65.2045 145.602L63.327 153.377L60.1061 152.596C57.7304 152.019 56.8054 150.342 57.446 147.69C58.1252 144.877 59.5851 144.239 61.3669 144.671L65.2045 145.602Z" fill="#0D0D11"/>
<path d="M41.1052 147.657L39.5692 148.668C40.0098 148.892 40.3838 149.034 40.3838 149.034C42.9779 150.201 45.6903 148.636 46.1591 147.764L44.7145 150.983L46.4724 151.773L47.6667 149.112L50.8278 142.126C51.0301 141.675 51.2336 141.509 51.5881 141.178L48.6081 139.838C48.9266 140.162 49.3951 140.553 49.0484 141.326L46.3614 147.313C46.0392 147.916 44.8601 149.165 41.5865 147.847C41.5865 147.847 41.3721 147.751 41.1052 147.657Z" fill="#0D0D11"/>
<path d="M32.0094 147.574C32.3983 147.014 32.2627 146.261 31.7028 145.872C31.1429 145.483 30.3711 145.605 29.9822 146.165C29.5933 146.726 29.7347 147.511 30.2946 147.9C30.8545 148.29 31.6204 148.135 32.0094 147.574ZM32.2374 143.494L33.8205 144.594C35.8387 141.357 38.0977 138.144 40.4784 135.044L38.8567 133.917C36.8235 137.258 34.6224 140.512 32.2374 143.494Z" fill="#0D0D11"/>
<path d="M24.1466 125.526C26.3788 124.875 28.6506 125.804 29.6086 126.775C33.0278 130.24 30.9225 134.4 28.2842 136.146L23.494 131.292C22.9157 130.739 21.4606 129.499 20.3897 130.557C20.2558 130.689 19.3685 131.631 20.5037 133.484C21.5402 135.171 22.6158 135.959 23.1622 136.312C26.5243 138.313 29.9594 136.772 29.9594 136.772C33.1108 135.379 34.6716 130.566 31.6159 127.47C30.6578 126.499 29.4495 125.677 27.673 125.283C25.4821 124.703 24.0971 125.475 24.0971 125.475L24.1466 125.526ZM26.3178 136.831C24.6542 136.987 22.2196 135.524 21.7837 133.509C21.5255 132.31 22.3508 130.669 23.524 131.791L28.1672 136.228C27.5829 136.607 26.9498 136.802 26.3178 136.831Z" fill="#0D0D11"/>
<path d="M16.8191 125.652L16.1607 124.677L24.1687 119.269C24.4804 119.059 24.611 119.084 24.977 119.206L23.16 116.517C23.3001 117.018 23.1922 117.488 22.7119 117.869L15.0547 123.041L13.422 120.624L11.614 120.426L13.9183 123.836L13.9378 123.823L13.4833 124.159C13.1326 124.395 10.0115 126.957 8.85229 125.158C7.57454 123.183 5.90747 119.455 4.75792 120.232C3.37455 121.166 9.43875 129.217 15.0112 125.454L16.8191 125.652Z" fill="#0D0D11"/>
<path d="M5.06886 116.283C5.69436 116.012 5.97499 115.301 5.70333 114.675C5.43167 114.049 4.71076 113.746 4.08526 114.017C3.45976 114.289 3.16692 115.031 3.43858 115.656C3.71024 116.282 4.44335 116.554 5.06886 116.283ZM7.40862 112.936L8.17676 114.705C11.596 113.018 15.2074 111.478 18.8628 110.099L18.0759 108.286C14.5891 110.054 11.0058 111.659 7.40862 112.936Z" fill="#0D0D11"/>
<path d="M15.6327 104.532C15.4093 104.293 15.2121 104.17 15.0006 104.194L4.0686 106.685L3.62781 104.758L6.97912 104.019C0.863947 102.059 0.566279 95.8051 5.08117 94.7763L12.4608 93.0947L12.883 92.5159L13.518 95.2906L12.8859 94.9521L5.68956 96.592C1.51844 97.5425 1.66223 102.07 7.29998 103.946L14.5756 102.336C14.7818 102.289 14.9055 102.092 14.9977 101.757L15.6327 104.532Z" fill="#0D0D11"/>
<path d="M18.5636 83.9174C18.4557 81.2376 17.2527 76.4819 14.1524 76.6034C10.8878 76.7313 12.2743 85.4587 11.6558 87.6254L9.89247 84.728C10.2111 82.1257 7.79718 77.6764 4.55051 78.2509C3.10191 78.496 2.12795 79.4288 1.50629 80.3478L0 76.2397C0.17133 80.4943 0.23475 82.0693 0.266341 84.0221C0.324615 87.2217 2.96359 90.2496 5.44751 90.011C7.55563 89.7872 9.42552 87.7363 9.88413 85.105L12.4305 89.3372C12.7441 88.9482 12.9591 88.4454 13.1364 87.5909C16.9944 92.2661 18.8287 90.4992 18.5636 83.9174ZM9.52012 83.6596C9.6091 85.8692 7.88658 87.4905 5.19791 87.9019C2.31661 88.2032 0.716317 87.018 0.624499 84.7379C0.537415 82.5753 1.79399 81.0664 4.89784 80.4504C7.53481 79.9233 9.43019 81.4265 9.52012 83.6596ZM16.3128 78.261C19.1561 82.8582 16.3686 91.914 13.1946 87.2825C13.3615 86.1695 13.438 84.5655 13.41 82.1181C13.3887 79.8352 13.6696 76.8813 14.7031 76.8408C15.3137 76.8169 15.7094 77.2958 16.3128 78.261Z" fill="#0D0D11"/>
<path d="M9.98727 53.3994L7.24041 61.4348L7.55171 61.5416L10.2986 53.5062L9.98727 53.3994Z" fill="#0D0D11"/>
<path d="M28.039 38.5284C29.9406 36.1945 30.6646 33.3611 28.2239 31.368C23.6122 27.609 17.3868 37.0929 13.6831 34.1904C11.32 32.3242 14.2751 27.4957 18.1941 26.3066C19.819 25.7993 21.3628 25.9 23.2259 27.1916L23.3016 27.1017L18.6864 24.0774C18.6864 24.0774 16.3379 26.066 14.3815 28.5382C11.2046 32.5345 12.896 35.1263 13.8825 35.926C18.1704 39.4124 24.8778 30.488 28.1697 33.259C29.0151 33.9707 29.9547 35.776 27.8412 38.3619C25.6066 41.0918 22.8119 41.967 18.1313 38.7648L18.0405 38.8727L23.3459 42.3549C24.9006 41.4197 26.1829 40.8084 28.039 38.5284Z" fill="#0D0D11"/>
<path d="M37.7705 23.5811L37.7043 23.5746C38.7268 27.419 35.8621 32.3813 33.391 29.3287L28.3924 23.1177L31.2477 20.7779L31.2925 18.9777L27.5279 22.0627L25.7242 19.8617L25.7372 25.2936L26.9193 24.3249L31.6147 30.0546C34.7301 33.8563 39.1134 28.744 37.7705 23.5811Z" fill="#0D0D11"/>
<path d="M37.0914 17.9696L39.52 15.1628C41.9547 12.5137 44.0056 11.6575 45.3243 14.207C45.7337 15.0019 42.0468 18.2034 42.0468 18.2034C36.8186 22.6523 40.0923 27.0538 43.9678 24.9291C47.328 23.0868 46.5864 16.6534 46.5937 16.569L47.503 18.3236L47.8198 18.901C48.7962 20.4847 50.2678 21.2605 52.3293 20.1303C51.4554 20.3948 50.2526 19.7667 49.1663 17.7873L49.0079 17.4986C48.3309 16.3139 47.8157 15.2284 47.4083 14.4861C45.7675 11.4962 40.0595 11.9433 37.6389 14.9602L37.0914 17.9696ZM41.3371 23.0184C38.6259 21.2055 42.0868 18.4229 42.4013 18.1164C45.517 15.3889 45.4827 14.4957 45.5167 14.5575L45.9147 15.3318C47.29 17.9844 45.1274 25.5272 41.3371 23.0184Z" fill="#0D0D11"/>
<path d="M57.8627 7.82869L58.3165 6.04633C57.8401 6.17763 57.4676 6.32437 57.4676 6.32437C54.7646 7.20969 53.8148 10.1941 54.056 11.1547L52.9551 7.80235L51.1233 8.40232L52.0334 11.1736L54.4036 18.4668C54.5577 18.9361 54.5194 19.1962 54.4801 19.6794L57.5852 18.6624C57.1318 18.6376 56.5219 18.6641 56.2577 17.8595L54.2101 11.6241C54.042 10.9613 54.0717 9.24361 57.3785 8.012C57.3785 8.012 57.6019 7.93884 57.8627 7.82869Z" fill="#0D0D11"/>
<path d="M73.8984 11.3764L73.8456 11.336C72.6935 15.1429 67.6481 17.8515 67.152 13.9542L66.1674 6.04L69.8258 5.55577L70.8105 4.04908L65.987 4.68752L65.6106 1.86598L62.7654 6.4903L64.28 6.28982L65.2598 13.6352C65.9099 18.5087 72.3255 16.473 73.8984 11.3764Z" fill="#0D0D11"/>
<path d="M87.3146 16.1683L93.3223 17.626C95.4924 18.1525 98.6821 17.8614 99.4276 14.7743C100.085 12.0532 97.4985 10.0458 95.4426 9.54701L97.2015 9.97379C99.897 10.6278 102.357 9.55437 102.876 7.40488C103.533 4.6837 101.307 2.78793 97.5832 1.88448L89.8165 0L91.0365 0.755943L87.3146 16.1683ZM91.4837 8.41699L93.2397 1.14529L96.0951 1.83811C100.412 2.88566 101.125 4.34149 100.506 6.90259C99.9984 9.00635 98.2681 10.0631 96.3264 9.59202L91.4837 8.41699ZM89.5565 16.3976L91.434 8.62279L94.6549 9.4043C97.0306 9.98073 97.9556 11.6576 97.315 14.3102C96.6358 17.1228 95.1759 17.761 93.3941 17.3287L89.5565 16.3976Z" fill="#0D0D11"/>
<path d="M112.218 13.8415L113.754 12.8302C113.313 12.6062 112.939 12.4637 112.939 12.4637C110.345 11.2967 107.633 12.8621 107.164 13.7345L108.609 10.5155L106.851 9.72468L105.656 12.3857L102.495 19.372C102.293 19.8227 102.089 19.989 101.735 20.3196L104.715 21.6602C104.396 21.3364 103.928 20.945 104.275 20.1725L106.962 14.1852C107.284 13.5821 108.463 12.3329 111.736 13.6508C111.736 13.6508 111.951 13.7472 112.218 13.8415Z" fill="#0D0D11"/>
<path d="M121.724 14.2091C121.335 14.7694 121.471 15.5223 122.031 15.9115C122.591 16.3006 123.363 16.1783 123.751 15.618C124.14 15.0577 123.999 14.272 123.439 13.8829C122.879 13.4937 122.113 13.6488 121.724 14.2091ZM121.496 18.2895L119.913 17.1892C117.895 20.4264 115.636 23.6394 113.255 26.7392L114.877 27.8664C116.91 24.5251 119.111 21.2718 121.496 18.2895Z" fill="#0D0D11"/>
<path d="M130.281 37.3955C128.049 38.0462 125.777 37.1168 124.819 36.146C121.4 32.6815 123.505 28.5211 126.143 26.7755L130.934 31.6293C131.512 32.1818 132.967 33.4219 134.038 32.3645C134.172 32.2324 135.059 31.2902 133.924 29.437C132.887 27.7506 131.812 26.962 131.265 26.6093C127.903 24.6085 124.468 26.1493 124.468 26.1493C121.317 27.5424 119.756 32.3548 122.812 35.4512C123.77 36.4219 124.978 37.2446 126.755 37.6387C128.945 38.2183 130.33 37.4457 130.33 37.4457L130.281 37.3955ZM128.11 26.0899C129.773 25.9344 132.208 27.397 132.644 29.412C132.902 30.611 132.077 32.252 130.904 31.1302L126.26 26.6931C126.845 26.3144 127.478 26.119 128.11 26.0899Z" fill="#0D0D11"/>
<path d="M137.902 37.6474L138.56 38.6218L130.552 44.03C130.24 44.2405 130.11 44.2152 129.744 44.0935L131.561 46.7828C131.421 46.2814 131.529 45.8112 132.009 45.4301L139.666 40.2587L141.299 42.6752L143.107 42.8732L140.803 39.4629L140.783 39.4761L141.238 39.1408C141.588 38.9039 144.709 36.342 145.869 38.1417C147.146 40.1167 148.813 43.8439 149.963 43.0675C151.346 42.1332 145.282 34.082 139.71 37.8454L137.902 37.6474Z" fill="#0D0D11"/>
<path d="M149.532 47.5432C148.907 47.8144 148.626 48.5256 148.898 49.1514C149.17 49.7771 149.89 50.0799 150.516 49.8088C151.141 49.5376 151.434 48.7954 151.163 48.1697C150.891 47.544 150.158 47.2721 149.532 47.5432ZM147.193 50.8903L146.424 49.1211C143.005 50.8082 139.394 52.3479 135.738 53.7273L136.525 55.5397C140.012 53.772 143.595 52.1675 147.193 50.8903Z" fill="#0D0D11"/>
<path d="M138.528 59.6484C138.752 59.8871 138.949 60.011 139.16 59.987L150.092 57.4958L150.533 59.4221L147.182 60.1616C153.297 62.1218 153.595 68.3754 149.08 69.4043L141.7 71.0859L141.278 71.6647L140.643 68.8899L141.275 69.2284L148.472 67.5886C152.643 66.6381 152.499 62.1107 146.861 60.2348L139.586 61.8444C139.379 61.8914 139.256 62.0885 139.163 62.4232L138.528 59.6484Z" fill="#0D0D11"/>
<path d="M137.436 80.8673C137.544 83.547 138.747 88.3027 141.848 88.1813C145.112 88.0534 143.726 79.326 144.344 77.1593L146.108 80.0567C145.789 82.6589 148.203 87.1082 151.449 86.5337C152.898 86.2886 153.872 85.3558 154.494 84.4368L156 88.545C155.829 84.2903 155.765 82.7154 155.734 80.7625C155.675 77.5629 153.036 74.535 150.552 74.7736C148.444 74.9975 146.574 77.0484 146.116 79.6797L143.57 75.4474C143.256 75.8364 143.041 76.3392 142.864 77.1937C139.006 72.5185 137.171 74.2855 137.436 80.8673ZM146.48 81.1251C146.391 78.9155 148.113 77.2941 150.802 76.8827C153.683 76.5815 155.284 77.7666 155.375 80.0467C155.463 82.2093 154.206 83.7182 151.102 84.3342C148.465 84.8613 146.57 83.3582 146.48 81.1251ZM139.687 86.5237C136.844 81.9264 139.631 72.8707 142.805 77.5021C142.639 78.6152 142.562 80.2191 142.59 82.6666C142.611 84.9494 142.33 87.9034 141.297 87.9439C140.686 87.9678 140.291 87.4889 139.687 86.5237Z" fill="#0D0D11"/>
<path d="M143.868 108.852L146.615 100.817L146.304 100.71L143.557 108.746L143.868 108.852Z" fill="#0D0D11"/>
<path fill-rule="evenodd" clip-rule="evenodd" d="M24.5693 80.9772C24.5693 110.471 48.6857 134.386 78.4425 134.386C108.199 134.386 132.316 110.471 132.316 80.9773C132.316 51.4838 108.199 27.5682 78.4426 27.5682C48.6857 27.5682 24.5693 51.4837 24.5693 80.9772ZM24 80.9772C24 110.788 48.3747 134.954 78.4425 134.955C108.51 134.955 132.885 110.788 132.885 80.9773C132.885 51.1665 108.51 27 78.4426 27C48.3748 27 24 51.1664 24 80.9772Z" fill="#0D0D11"/>
</svg>
